<svg width="80" height="80" viewBox="0 0 80 80" fill="none" xmlns="http://www.w3.org/2000/svg">
  <path fill-rule="evenodd" clip-rule="evenodd" d="M31 48.9705V56.9705C31 61.3888 34.5817 64.9705 39 64.9705H56.9411C61.3594 64.9705 64.9411 61.3888 64.9411 56.9705V39.0294C64.9411 34.6111 61.3594 31.0294 56.9411 31.0294H48.9411V40.9705C48.9411 45.3888 45.3594 48.9705 40.9411 48.9705H31Z" fill="#F2C94C" />
  <path fill-rule="evenodd" clip-rule="evenodd" d="M23 15.0294C18.5817 15.0294 15 18.6111 15 23.0294V40.9705C15 45.3888 18.5817 48.9705 23 48.9705H31V39.0294C31 34.6111 34.5817 31.0294 39 31.0294H48.9411V23.0294C48.9411 18.6111 45.3594 15.0294 40.9411 15.0294H23Z" fill="#2F80ED" />
  <path fill-rule="evenodd" clip-rule="evenodd" d="M48.941 31.0295V40.9706C48.941 45.3889 45.3593 48.9706 40.941 48.9706L31 48.9706L31 39.0295C31 34.6112 34.5817 31.0295 39 31.0295L48.941 31.0295Z" fill="#EB5757" />
</svg>