<svg width="80" height="80" transform="rotate(90)" viewBox="0 0 80 80" fill="none" xmlns="http://www.w3.org/2000/svg">
  <path d="M54.6368 64.9474C56.1506 66.4006 58.5954 64.8389 57.9132 62.8544L41.7497 15.8332C41.131 14.0335 38.5856 14.0334 37.9669 15.8332L22.0873 62.0287C21.4051 64.0132 23.8499 65.5749 25.3637 64.1216L38.1851 51.8131C38.959 51.0701 40.1813 51.0701 40.9552 51.8131L54.6368 64.9474Z" fill="#2F80ED" />
  <path d="M40 14.4887V51.3028C39.3688 51.1645 38.6839 51.3347 38.1851 51.8136L25.3637 64.1221C23.8499 65.5754 21.4051 64.0137 22.0873 62.0292L37.9669 15.8337C38.2948 14.8801 39.1635 14.4317 40 14.4887Z" fill="#56CCF2" />
</svg>