<svg width="80" height="80" viewBox="0 0 80 80" fill="none" xmlns="http://www.w3.org/2000/svg">
  <path fill-rule="evenodd" clip-rule="evenodd" d="M40.0004 14.1311C36.6353 14.1311 33.2702 14.7875 30.101 16.1002C23.7624 18.7257 18.7265 23.7617 16.101 30.1002C13.4755 36.4388 13.4755 43.5607 16.101 49.8992C18.7265 56.2378 23.7624 61.2737 30.101 63.8992C36.4395 66.5247 43.5614 66.5247 49.9 63.8992C56.2385 61.2737 61.2744 56.2378 63.9 49.8992C65.2127 46.73 65.8691 43.3649 65.8691 39.9999L40.0004 39.9999L40.0004 14.1311Z" fill="#2F80ED" />
  <path fill-rule="evenodd" clip-rule="evenodd" d="M70.1732 31.9999L48 31.9999L48 9.82666C50.8844 9.82665 53.7688 10.3893 56.4854 11.5145C61.9184 13.7649 66.2349 18.0815 68.4854 23.5145C69.6106 26.2311 70.1732 29.1155 70.1732 31.9999Z" fill="#219653" />
</svg>